<?xml version="1.0" encoding="UTF-8" standalone="no"?>
<!-- Created with Inkscape (http://www.inkscape.org/) -->

<svg
   xmlns:dc="http://purl.org/dc/elements/1.1/"
   xmlns:cc="http://creativecommons.org/ns#"
   xmlns:rdf="http://www.w3.org/1999/02/22-rdf-syntax-ns#"
   xmlns:svg="http://www.w3.org/2000/svg"
   xmlns="http://www.w3.org/2000/svg"
   xmlns:sodipodi="http://sodipodi.sourceforge.net/DTD/sodipodi-0.dtd"
   xmlns:inkscape="http://www.inkscape.org/namespaces/inkscape"
   version="1.0"
   width="355.73785"
   height="417.23267"
   id="svg3335"
   inkscape:version="0.48.4 r9939"
   sodipodi:docname="House_Targaryen wiki.svg"
   inkscape:export-filename="I:\Documents\ASOIAF\Gebruikt op de wiki\Coat of Arms\House Targaryen.png"
   inkscape:export-xdpi="144"
   inkscape:export-ydpi="144">
  <metadata
     id="metadata3615">
    <rdf:RDF>
      <cc:Work
         rdf:about="">
        <dc:format>image/svg+xml</dc:format>
        <dc:type
           rdf:resource="http://purl.org/dc/dcmitype/StillImage" />
        <dc:title />
      </cc:Work>
    </rdf:RDF>
  </metadata>
  <sodipodi:namedview
     pagecolor="#ffffff"
     bordercolor="#666666"
     borderopacity="1"
     objecttolerance="10"
     gridtolerance="10"
     guidetolerance="10"
     inkscape:pageopacity="0"
     inkscape:pageshadow="2"
     inkscape:window-width="1600"
     inkscape:window-height="838"
     id="namedview3613"
     showgrid="false"
     inkscape:zoom="1.4082389"
     inkscape:cx="178.57904"
     inkscape:cy="206.95221"
     inkscape:window-x="-8"
     inkscape:window-y="-8"
     inkscape:window-maximized="1"
     inkscape:current-layer="svg3335"
     fit-margin-top="0.2"
     fit-margin-left="0.2"
     fit-margin-right="0.2"
     fit-margin-bottom="0.2" />
  <defs
     id="defs3337" />
  <g
     transform="translate(-276.70951,-283.50411)"
     id="layer1"
     style="fill:#050505;fill-opacity:1">
    <path
       d="m 284.5145,285.20411 339.54243,0 0,204.30095 c 0,114.62655 -166.08254,204.30091 -169.77121,204.30091 -7.75795,0 -169.77122,-89.40626 -169.77122,-204.30091 l 0,-204.30095 z"
       id="path1298"
       style="fill:#050505;fill-opacity:1;fill-rule:nonzero;stroke:#000000;stroke-width:3;stroke-linecap:round;stroke-linejoin:bevel;stroke-miterlimit:4;stroke-opacity:1;stroke-dasharray:none;stroke-dashoffset:0;marker:none;visibility:visible;display:block"
       inkscape:connector-curvature="0" />
  </g>
  <path
     inkscape:connector-curvature="0"
     sodipodi:nodetypes="cssssssssssss"
     id="path2218"
     d="m 4.7800568,316.48188 c 9.8636902,-14.38123 71.7910702,-6.89457 62.1099602,4.3105 -6.23199,7.21302 -11.41217,15.6055 -10.76949,15.58138 1.86265,-0.0699 33.49254,2.6491 100.628193,2.31893 67.13568,-0.33016 119.55919,-7.93915 167.91448,-3.63956 39.95793,3.55291 22.66188,19.28386 22.70391,33.73132 0.042,14.44746 11.32731,23.6632 3.57959,35.43959 -5.02342,7.6355 -24.55054,17.1959 -34.83923,5.37601 -9.66736,-11.10609 -3.04982,-31.05168 -4.52649,-31.26673 -40.17214,-5.85053 -148.45366,11.01458 -203.49675,9.67709 -29.540823,-0.71782 -83.673963,-1.5103 -101.4619431,-12.23223 -1.0965101,-0.66093 3.1187299,-11.74173 0.0246,-28.0955 -2.0219401,-10.68692 -8.0252201,-22.22192 -1.8668601,-31.2008 z"
     style="fill:#000000;fill-opacity:1;fill-rule:evenodd;stroke:#000000;stroke-width:3.75;stroke-linecap:butt;stroke-linejoin:miter;stroke-miterlimit:4;stroke-opacity:1;stroke-dasharray:none" />
  <path
     inkscape:connector-curvature="0"
     sodipodi:nodetypes="cc"
     id="path2220"
     d="m 57.299817,336.26825 c -23.4323,-0.42773 -57.63991015,0.0424 -54.6605402,-15.88565"
     style="fill:none;stroke:#000000;stroke-width:3.75;stroke-linecap:butt;stroke-linejoin:miter;stroke-miterlimit:4;stroke-opacity:1;stroke-dasharray:none" />
  <path
     inkscape:connector-curvature="0"
     sodipodi:nodetypes="czz"
     id="path2222"
     d="m 33.607167,335.77136 c -0.12293,-5.46806 -5.87508,-17.1243 -3.04704,-14.26962 3.00732,3.03564 41.12574,4.67769 35.5415,-5.33525"
     style="fill:none;stroke:#000000;stroke-width:2.5;stroke-linecap:butt;stroke-linejoin:miter;stroke-miterlimit:4;stroke-opacity:1;stroke-dasharray:none" />
  <path
     inkscape:connector-curvature="0"
     sodipodi:nodetypes="cc"
     id="path2226"
     d="m 312.13696,378.27011 c 28.77918,3.51447 30.87697,3.05042 40.16213,9.95207"
     style="fill:none;stroke:#000000;stroke-width:3.75;stroke-linecap:butt;stroke-linejoin:miter;stroke-miterlimit:4;stroke-opacity:1;stroke-dasharray:none" />
  <path
     inkscape:connector-curvature="0"
     sodipodi:nodetypes="csssc"
     id="path2228"
     d="m 313.61437,403.9944 c -1.2379,-16.51944 13.13557,-17.38176 15.09522,-17.26799 1.95661,0.1136 10.02354,1.41789 10.91651,8.20261 0.29987,2.27837 -13.15844,7.67515 -11.99514,6.34995 1.35888,-1.54797 -0.77897,-12.89881 -0.67704,-14.65448"
     style="fill:none;stroke:#000000;stroke-width:2.5;stroke-linecap:butt;stroke-linejoin:miter;stroke-miterlimit:4;stroke-opacity:1;stroke-dasharray:none" />
  <path
     inkscape:connector-curvature="0"
     sodipodi:nodetypes="cc"
     id="path2230"
     d="m 339.3821,393.89482 c 0.0639,-1.10135 -0.85888,-9.31963 -0.73092,-11.52367"
     style="fill:#ff0000;fill-opacity:0.75;fill-rule:evenodd;stroke:#000000;stroke-width:2.5;stroke-linecap:butt;stroke-linejoin:miter;stroke-miterlimit:4;stroke-opacity:1;stroke-dasharray:none" />
  <flowRoot
     xml:space="preserve"
     id="flowRoot3834"
     style="font-size:40px;font-style:oblique;font-variant:normal;font-weight:normal;font-stretch:normal;line-height:125%;letter-spacing:0px;word-spacing:0px;fill:#ff0000;fill-opacity:1;stroke:none;font-family:Monotype Corsiva;-inkscape-font-specification:Monotype Corsiva Oblique"
     transform="matrix(0.99845098,-0.05563848,0.05563848,0.99845098,6.6268083,311.91214)"><flowRegion
       id="flowRegion3836"><rect
         id="rect3838"
         width="250.19962"
         height="40.78801"
         x="51.731133"
         y="35.738277"
         style="fill:#ff0000"
         ry="0" /></flowRegion><flowPara
       id="flowPara3840"
       style="fill:#ff0000;fill-opacity:1">Fire and Blood</flowPara></flowRoot>  <path
     style="fill:#8b0000;fill-opacity:1;fill-rule:nonzero;stroke:#000000;stroke-width:1.10000002;stroke-miterlimit:4;stroke-opacity:1;stroke-dasharray:none"
     d="M 25.415073,332.7 C 9.249146,330.65143 2.4622956,326.19603 5.5608908,319.66623 c 2.6491985,-5.58278 9.9909842,-8.19399 24.3832102,-8.67225 9.618657,-0.31964 16.448223,0.237 23.903201,1.94821 4.528957,1.03957 10.398104,3.34867 11.004229,4.3294 0.933724,1.5108 -1.48844,3.06945 -6.498747,4.1819 -3.829399,0.85025 -18.462338,0.8479 -22.853687,-0.004 -1.788296,-0.34678 -3.861316,-1.06478 -4.606711,-1.59555 -0.745395,-0.53076 -1.603371,-0.96502 -1.906612,-0.96502 -0.990242,0 -0.581413,3.57623 0.958327,8.38299 1.53787,4.80091 1.805383,6.25488 1.132257,6.15395 -0.20758,-0.0311 -2.755158,-0.35791 -5.661285,-0.72618 z"
     id="path5286"
     inkscape:connector-curvature="0" />
  <path
     style="fill:#000000;fill-opacity:1;fill-rule:nonzero;stroke:#000000;stroke-width:1.10000002;stroke-miterlimit:4;stroke-opacity:1;stroke-dasharray:none"
     d="m 36.993756,333.53299 c -1.73122,-0.23121 -2.303092,-0.53732 -2.444128,-1.30828 -0.101263,-0.55355 -0.708367,-2.66834 -1.349119,-4.69954 l -1.165004,-3.69309 1.113267,0.27942 c 5.203174,1.30591 19.285668,1.48395 25.479171,0.32212 1.245482,-0.23364 2.326971,-0.36312 2.403309,-0.28773 0.07634,0.0754 -1.351919,2.32024 -3.173902,4.98858 l -3.312698,4.85152 -7.645442,-0.0756 c -4.204992,-0.0416 -8.662447,-0.21141 -9.905454,-0.37742 z"
     id="path5288"
     inkscape:connector-curvature="0" />
  <path
     style="fill:#8b0000;fill-opacity:1;fill-rule:nonzero;stroke:#000000;stroke-width:1.10000002;stroke-miterlimit:4;stroke-opacity:1;stroke-dasharray:none"
     d="m 323.82767,412.15467 c -3.01549,-1.05152 -4.69119,-2.29859 -6.80037,-5.06089 -1.55281,-2.03366 -1.75446,-2.64421 -1.75446,-5.31216 0,-1.65792 0.2768,-3.94649 0.6151,-5.08569 0.82374,-2.77382 4.53288,-6.45382 7.53645,-7.47724 l 2.32906,-0.79359 0.35682,4.75928 c 0.19625,2.6176 0.20396,5.91151 0.0171,7.3198 l -0.33967,2.56052 2.21842,-0.25004 c 2.55322,-0.28779 9.09715,-3.29209 11.41022,-5.23841 l 1.57374,-1.32421 -0.35055,-5.99301 -0.35054,-5.993 2.53442,0.99898 c 1.39393,0.54943 3.6773,1.70219 5.07415,2.56169 2.36596,1.45578 2.58006,1.75693 3.12898,4.40107 1.11236,5.35818 -0.21122,9.36192 -4.38034,13.25022 -6.4884,6.05137 -16.3429,8.93479 -22.81858,6.67668 z"
     id="path5290"
     inkscape:connector-curvature="0" />
  <path
     style="fill:#8b0000;fill-opacity:1;fill-rule:nonzero;stroke:#000000;stroke-width:1.10000002;stroke-miterlimit:4;stroke-opacity:1;stroke-dasharray:none"
     d="m 329.36315,396.95052 c 0,-1.33642 -0.14549,-3.82178 -0.3233,-5.52302 -0.29769,-2.84812 -0.24504,-3.09317 0.6646,-3.09317 0.54335,0 2.21369,0.62274 3.71189,1.38387 3.19843,1.6249 5.03563,4.1599 3.95685,5.45974 -0.63593,0.76625 -4.34446,2.80878 -6.78342,3.73607 -1.19505,0.45436 -1.22662,0.40381 -1.22662,-1.96349 z"
     id="path5292"
     inkscape:connector-curvature="0" />
  <g
     transform="matrix(0.3322565,0,0,0.4400326,83.04038,11.28348)"
     id="g4124"
     style="fill:#8b0000">
    <g
       transform="translate(591.62577,-36.024052)"
       id="g3283"
       style="fill:#8b0000;stroke:#000000;stroke-width:0.87819928">
      <path
         sodipodi:nodetypes="ccccccccccccccccccccccccccccccccccccccccccccccccccccccccccscccccccccscccccccccsccccccccscccccccccccccccccccccccccccccc"
         d="m -149.51979,547.03017 15.02742,-32.82305 21.75021,-22.54113 c 15.12726,-1.32522 30.55606,-2.2735 49.82776,1.58183 l -18.19109,25.7048 -11.86375,24.91388 2.37275,22.14567 22.93658,15.02741 28.86847,-9.491 22.14566,-21.75021 -2.1717,-36.27501 -25.51038,-17.50732 c -25.72971,-6.85098 -49.04597,-8.0638 -71.18251,-5.53642 -46.39696,20.11954 -91.86605,27.24892 -137.22405,32.82304 -8.58467,35.21541 3.91883,69.42662 17.00471,103.6101 0.59425,11.9286 7.58135,17.46434 19.77292,17.79562 9.91388,-0.74978 21.29993,0.7087 27.28662,-5.93187 10.0929,-11.56242 24.74832,-6.53102 26.49572,4.7455 -6.17873,4.7511 -5.23086,11.87773 -1.9773,19.77292 -8.70121,4.33991 -17.92632,3.9647 -27.68208,-1.18638 -10.85695,5.63293 -23.43742,5.2335 -36.46126,2.9264 -8.58955,6.31663 -11.97173,17.25467 -9.09555,33.06031 7.29081,10.56473 5.41625,20.11108 1.42365,29.4221 -6.18421,-2.57238 -13.12372,-3.25649 -21.8293,0.47455 -5.67095,-7.40098 -8.87662,-15.41829 0.47455,-26.5748 -1.65756,-12.2076 -0.20153,-25.45307 1.8982,-38.9131 -6.05263,11.52358 -23.71379,16.41371 -37.964,23.25295 -4.70762,7.94704 -11.16171,16.04582 -24.20205,15.66015 0.18082,-7.71335 -5.4539,-11.54967 -12.81285,-14.2365 -5.15056,-15.80576 9.07474,-21.35058 23.7275,-18.0329 21.4065,-2.58415 29.76235,-11.69363 41.7604,-18.982 -20.21259,-0.17562 -34.51218,-3.30774 -44.6077,-8.5419 -13.1942,3.67498 -22.76321,5.9654 -28.94755,-4.7455 2.77207,-6.73662 2.90619,-13.03358 -1.8982,-18.50745 3.3785,-9.60993 10.75838,-13.39966 27.99845,-2.84731 16.8358,13.88024 32.7688,15.12121 48.34473,11.36325 -8.20539,-33.09225 -32.5701,-65.2354 -57.57131,-98.32765 -10.8414,-5.49887 -22.50347,-13.45974 -24.81918,6.61845 -10.20345,41.91685 -42.22427,38.36124 -45.50185,68.66642 11.98133,2.91019 17.65287,12.13015 25.6465,19.02804 7.33301,6.53314 17.91866,9.16309 14.89151,28.12842 -9.60055,-3.20651 -16.04563,-0.10207 -19.02805,9.92767 -23.30579,-6.78997 -17.89968,-20.75792 -15.71881,-33.91955 -25.09496,-22.53644 -50.18991,-17.95745 -75.28487,-12.4096 -11.23451,11.77375 -21.28415,17.62319 -28.12842,7.44576 6.52907,-5.49382 -1.38269,-19.31558 -9.92767,-18.20074 7.82789,-28.93096 39.3816,1.01165 67.83911,-10.75498 -14.42375,-9.37614 -32.7547,-18.75227 -34.74686,-28.12841 -13.74088,5.95852 -33.67004,-7.24364 -26.86954,-25.17909 5.71278,1.72845 12.71867,-10.48339 9.89185,-17.51677 13.49761,-3.54359 22.23233,2.94381 26.90536,23.66781 10.19125,24.64095 23.35671,25.48825 35.57417,33.91956 -12.31563,-17.92497 -2.11366,-36.67725 -19.85535,-51.29299 -20.53095,2.48315 -26.88525,-6.63278 -23.16457,-23.99188 8.27306,-0.55154 12.68537,-2.20614 16.54613,-11.58228 35.30587,-0.4532 21.51254,54.32231 43.84722,86.86715 7.10556,-21.53144 32.60463,-42.73795 28.95572,-59.02961 -57.02236,-27.54201 -137.4558,-89.66852 -93.4856,-179.64825 41.89129,-66.73433 101.30761,-87.42338 150.20957,-104.9724 41.3401,-14.83535 75.16617,-27.42669 84.53858,-63.69466 -26.99955,-9.31974 -46.19215,34.3836 -71.66541,31.85129 -43.04382,-3.0431 -80.32422,52.75962 -93.27878,45.50185 -16.75744,-12.18956 15.23902,-39.63859 27.34206,-50.27899 -60.53897,20.21552 -143.85363,39.83541 -147.92195,-24.79906 57.04626,46.93534 106.17359,5.3797 163.68832,3.25968 -12.4704,-14.63653 -25.95473,-16.64143 -34.11147,-14.94537 -27.81177,-21.29674 -39.35015,-2.74185 -36.29806,15.09833 -9.6549,-3.40055 -13.49789,-16.07079 -11.65677,-24.64719 -2.7268,-3.31387 -6.41003,-7.41065 -6.01519,-11.83439 0.77293,-8.65971 3.83786,-16.21911 8.57159,-19.25818 26.9564,-16.37448 51.01722,14.27103 92.45147,-6.72187 10.12268,-12.58294 29.80804,-14.67859 44.05406,3.30923 75.82045,-21.748795 192.96997,3.37749 158.11891,-52.327115 20.4694,-4.888731 33.09525,16.014161 26.16356,32.988837 -20.21223,15.207518 -32.94432,22.311898 -127.32275,34.484168 30.56682,0.51114 161.17071,16.87354 134.14802,-33.34662 21.18754,-3.213144 31.12838,21.99211 15.92565,36.67209 -25.19782,13.08447 -59.80237,23.17339 -87.71031,22.0347 6.10803,28.61824 1.33401,49.59201 -9.57057,66.18033 -19.36482,29.45827 -58.06309,45.08646 -89.48482,65.13616 -3e-4,1.9e-4 -6e-4,3.6e-4 -8.8e-4,5.6e-4 -9.82865,11.03054 -23.03765,23.43108 -34.50921,30.50185 -1.13269,12.72572 -0.37644,23.26926 -11.71434,46.28058 7.94301,6.38597 10.80524,8.18645 18.05436,21.40862 9.18556,0.51963 17.26374,2.00935 28.2748,7.96075 7.27297,-30.59795 -24.61037,-47.86107 -4.13654,-75.28487 9.93866,-10.23969 22.61306,-10.48973 34.74687,0 23.92565,31.42384 68.4474,31.25298 96.41238,3.76268 23.7063,-23.3039 25.58693,-64.58543 12.79204,-126.20401 -8.43447,-42.7547 12.09934,-49.68271 39.7107,-44.67454 95.15652,2.94496 120.33992,-71.170102 180.35134,-91.364976 23.0761,-8.538454 32.78331,12.491068 29.90601,28.659927 C 94.79506,78.859885 87.12793,83.356304 79.63574,88.17342 51.92511,123.56127 49.91465,178.23941 68.42099,202.19009 c 12.01903,9.54141 27.40081,7.63403 22.42951,-19.93734 24.6629,0.12883 21.80347,45.55658 3.11521,51.08943 -24.15482,7.0931 -26.86144,58.34256 -3.73825,70.40374 15.2586,7.32226 22.12229,2.22673 23.05255,-6.23042 11.44636,-0.60411 17.15585,27.46111 -1.86913,29.28297 -23.1349,4.98613 -78.34343,-6.03848 -80.3724,33.02122 5.10986,13.71609 22.01884,12.71549 28.65992,1.24608 -0.98626,35.00312 -38.35302,32.3811 -56.07377,18.06822 -52.46971,-25.88956 -108.73695,-28.88815 -108.40967,13.20826 -21.39001,-14.89924 -103.18122,-23.07054 -106.89347,12.1205 6.61229,13.73919 20.40693,10.79448 34.90254,-3.05797 14.37857,10.68667 38.60685,3.9742 50.03175,-8.28199 6.82398,4.52061 35.68047,8.98655 48.14067,-5.85512 13.46685,16.31963 28.67725,9.97316 44.10912,0.74761 5.2841,28.6726 31.06903,32.11341 62.0518,29.15688 -0.40684,26.2002 13.61539,49.30847 41.11867,69.52793 -20.14566,20.5693 -16.81186,47.00846 -5.23328,75.50882 -15.41208,10.08344 -25.44062,26.3195 -26.91404,52.33285 -18.37654,1.60711 -33.19625,7.57353 -47.1698,21.73852 -17.36615,-1.64012 -33.34947,1.21397 -47.10749,11.30028 l -38.7798,-3.66309 -29.65937,-22.54113 -23.33205,-33.2185 0,-41.12767"
         style="fill:#8b0000;fill-opacity:1;fill-rule:evenodd;stroke:#000000;stroke-width:7.73203516;stroke-linecap:butt;stroke-linejoin:miter;stroke-miterlimit:4;stroke-opacity:1;stroke-dasharray:none"
         id="path1413"
         inkscape:connector-curvature="0" />
      <path
         style="fill:#8b0000;fill-opacity:1;fill-rule:evenodd;stroke:#000000;stroke-width:0.87819928"
         d="m -507.97353,186.011 c 48.24014,31.34742 90.00839,-0.52792 150.47139,-5.23493 -7.39602,10.16363 -24.81983,10.71046 -53.32128,18.6036 -33.25427,9.20939 -84.01724,12.3333 -97.15011,-13.36867 z"
         id="path2408"
         sodipodi:nodetypes="ccsc"
         inkscape:connector-curvature="0" />
      <path
         style="fill:#8b0000;stroke:#000000;stroke-width:7.77932453;stroke-linecap:round;stroke-linejoin:miter;stroke-miterlimit:4;stroke-opacity:1;stroke-dasharray:none"
         d="m 30.92731,417.24223 c -15.10974,19.16126 -28.38059,12.806 -40.84433,13.44521"
         id="path2453"
         sodipodi:nodetypes="cc"
         inkscape:connector-curvature="0" />
      <path
         style="fill:#8b0000;stroke:#000000;stroke-width:6.02292585;stroke-linecap:round;stroke-linejoin:miter;stroke-miterlimit:4;stroke-opacity:1;stroke-dasharray:none"
         d="m -30.41928,387.85773 c -6.29107,15.09479 -22.46166,24.77918 -38.34344,26.17295"
         id="path2455"
         sodipodi:nodetypes="cc"
         inkscape:connector-curvature="0" />
      <path
         style="fill:#8b0000;stroke:#000000;stroke-width:7.77932453;stroke-linecap:round;stroke-linejoin:miter;stroke-miterlimit:4;stroke-opacity:1;stroke-dasharray:none"
         d="m -75.2693,388.37325 c -6.53865,11.87394 -19.06864,22.47141 -35.07267,26.23217"
         id="path2457"
         sodipodi:nodetypes="cc"
         inkscape:connector-curvature="0" />
      <path
         style="fill:#8b0000;stroke:#000000;stroke-width:7.77932453;stroke-linecap:round;stroke-linejoin:miter;stroke-miterlimit:4;stroke-opacity:1;stroke-dasharray:none"
         d="m -122.69691,392.49739 c -4.47052,16.26025 -20.07739,20.64047 -28.54861,26.23217"
         id="path2459"
         sodipodi:nodetypes="cc"
         inkscape:connector-curvature="0" />
      <path
         style="fill:#8b0000;stroke:#000000;stroke-width:7.77932453;stroke-linecap:round;stroke-linejoin:miter;stroke-miterlimit:4;stroke-opacity:1;stroke-dasharray:none"
         d="m -173.21763,401.26119 c -5.70142,12.48531 -19.06754,22.17235 -31.58249,29.20683"
         id="path2461"
         sodipodi:nodetypes="cc"
         inkscape:connector-curvature="0" />
      <path
         style="fill:#8b0000;stroke:#000000;stroke-width:7.77932453;stroke-linecap:round;stroke-linejoin:miter;stroke-miterlimit:4;stroke-opacity:1;stroke-dasharray:none"
         d="M 73.19975,485.29055 C 56.84796,482.40375 40.53984,479.82266 22.6965,466.49503"
         id="path2463"
         sodipodi:nodetypes="cc"
         inkscape:connector-curvature="0" />
      <path
         style="fill:#8b0000;stroke:#000000;stroke-width:7.77932453;stroke-linecap:round;stroke-linejoin:miter;stroke-miterlimit:4;stroke-opacity:1;stroke-dasharray:none"
         d="M 64.95147,561.58714 C 50.61772,557.94888 42.85251,541.17353 36.08249,522.40781"
         id="path2465"
         sodipodi:nodetypes="cc"
         inkscape:connector-curvature="0" />
      <path
         style="fill:#8b0000;stroke:#000000;stroke-width:7.77932453;stroke-linecap:round;stroke-linejoin:miter;stroke-miterlimit:4;stroke-opacity:1;stroke-dasharray:none"
         d="M 38.14456,613.13889 C 29.1326,599.47661 27.17673,585.03032 31.95834,569.83542"
         id="path2467"
         sodipodi:nodetypes="cc"
         inkscape:connector-curvature="0" />
      <path
         style="fill:#8b0000;stroke:#000000;stroke-width:7.77932453;stroke-linecap:round;stroke-linejoin:round;stroke-miterlimit:4;stroke-opacity:1;stroke-dasharray:none"
         d="M 52.00976,95.889761 C 26.86846,116.34053 3.77402,145.22395 -35.79738,154.63998"
         id="path2469"
         sodipodi:nodetypes="cc"
         inkscape:connector-curvature="0" />
      <path
         style="fill:#8b0000;stroke:#000000;stroke-width:6.22345924;stroke-linecap:round;stroke-linejoin:round;stroke-miterlimit:4;stroke-opacity:1;stroke-dasharray:none"
         d="m -70.52848,176.1402 c -16.8273,7.00968 93.1676,25.35923 139.7514,38.03884 L -70.52848,176.1402 z"
         id="path2473"
         sodipodi:nodetypes="ccc"
         inkscape:connector-curvature="0" />
      <path
         style="fill:#8b0000;stroke:#000000;stroke-width:6.22345924;stroke-linecap:round;stroke-linejoin:round;stroke-miterlimit:4;stroke-opacity:1;stroke-dasharray:none"
         d="m -80.45168,191.8519 c -1.6214,-6.01775 98.2523,59.20185 148.0207,88.48165 -49.3402,-29.49388 -156.2101,-83.0264 -148.0207,-88.48165 z"
         id="path2475"
         sodipodi:nodetypes="ccc"
         inkscape:connector-curvature="0" />
      <path
         style="fill:#8b0000;stroke:#000000;stroke-width:6.22345924;stroke-linecap:round;stroke-linejoin:round;stroke-miterlimit:4;stroke-opacity:1;stroke-dasharray:none"
         d="m -88.00768,199.5341 c -7.31,2.46171 67.8084,89.30859 101.7126,133.96288 -33.9042,-44.65429 -100.8405,-141.31014 -101.7126,-133.96288 z"
         id="path2477"
         sodipodi:nodetypes="ccc"
         inkscape:connector-curvature="0" />
      <path
         style="fill:#8b0000;stroke:#000000;stroke-width:7.77932453;stroke-linecap:round;stroke-linejoin:round;stroke-miterlimit:4;stroke-opacity:1;stroke-dasharray:none"
         d="m -106.08648,329.94943 c 10.26318,-31.82529 4.50299,-83.6798 6.6154,-125.69356"
         id="path2479"
         sodipodi:nodetypes="cc"
         inkscape:connector-curvature="0" />
      <g
         id="g2489"
         transform="translate(-1356.7616,-22.120338)"
         style="fill:#8b0000;stroke:#000000;stroke-width:0.87819928">
        <path
           sodipodi:nodetypes="cc"
           id="path2481"
           d="m 1036.6214,549.70403 c -21.7956,-19.63169 -32.4813,-40.39437 -33.9577,-63.15209"
           style="fill:#8b0000;stroke:#000000;stroke-width:7.77932453;stroke-linecap:round;stroke-linejoin:miter;stroke-miterlimit:4;stroke-opacity:1;stroke-dasharray:none"
           inkscape:connector-curvature="0" />
        <path
           id="path2483"
           d="m 1072.5214,511.79464 21.1215,14.84541 -2.9233,26.24737"
           style="fill:#8b0000;stroke:#000000;stroke-width:7.77932453;stroke-linecap:round;stroke-linejoin:miter;stroke-miterlimit:4;stroke-opacity:1;stroke-dasharray:none"
           sodipodi:nodetypes="ccc"
           inkscape:connector-curvature="0" />
        <path
           sodipodi:nodetypes="ccc"
           id="path2485"
           d="m 1092.0393,503.15847 19.4629,14.92419 -4.3455,27.24011"
           style="fill:#8b0000;stroke:#000000;stroke-width:7.77932453;stroke-linecap:round;stroke-linejoin:miter;stroke-miterlimit:4;stroke-opacity:1;stroke-dasharray:none"
           inkscape:connector-curvature="0" />
        <path
           sodipodi:nodetypes="cc"
           id="path2487"
           d="m 982.70433,511.79464 c 1.97799,14.21234 17.18643,30.97479 38.20067,33.55192"
           style="fill:#8b0000;stroke:#000000;stroke-width:7.77932453;stroke-linecap:round;stroke-linejoin:miter;stroke-miterlimit:4;stroke-opacity:1;stroke-dasharray:none"
           inkscape:connector-curvature="0" />
      </g>
      <path
         style="fill:#8b0000;stroke:#000000;stroke-width:7.77932453;stroke-linecap:butt;stroke-linejoin:miter;stroke-miterlimit:4;stroke-opacity:1;stroke-dasharray:none"
         d="m -440.43436,136.04816 c -2.35506,20.69028 21.68046,13.64639 33.98262,16.12979"
         id="path2495"
         sodipodi:nodetypes="cc"
         inkscape:connector-curvature="0" />
      <path
         style="fill:#8b0000;fill-opacity:1;fill-rule:evenodd;stroke:#000000;stroke-width:0.87819928"
         d="m -432.79649,152.96278 c -2.29544,6.84214 1.96398,15.77229 5.5608,19.15384 -1.49168,-7.40506 1.4033,-12.61679 5.35484,-17.30024 l -10.91564,-1.8536 z"
         id="path2497"
         sodipodi:nodetypes="cccc"
         inkscape:connector-curvature="0" />
      <path
         sodipodi:nodetypes="cccc"
         id="path2499"
         d="m -401.88888,230.96233 c -11.59058,-4.5312 -18.17324,-18.85615 -18.32929,-26.58045 7.86146,9.51325 18.04048,11.63559 28.77767,11.97779 l -10.44838,14.60266 z"
         style="fill:#8b0000;fill-opacity:1;fill-rule:evenodd;stroke:#000000;stroke-width:4.66759443;stroke-linecap:butt;stroke-linejoin:miter;stroke-miterlimit:4;stroke-opacity:1;stroke-dasharray:none"
         inkscape:connector-curvature="0" />
      <g
         id="g2536"
         transform="translate(-572.2282,4.0183615)"
         style="fill:#8b0000;stroke:#000000;stroke-width:0.87819928">
        <path
           sodipodi:nodetypes="cc"
           id="path2501"
           d="m 303.2604,256.84633 c -3.2852,7.79875 0.2333,18.43285 -5.529,26.89874"
           style="fill:#8b0000;stroke:#000000;stroke-width:7.77932453;stroke-linecap:round;stroke-linejoin:miter;stroke-miterlimit:4;stroke-opacity:1;stroke-dasharray:none"
           inkscape:connector-curvature="0" />
        <path
           sodipodi:nodetypes="cc"
           id="path2503"
           d="m 255.22993,285.09145 c -3.9736,6.31709 7.92958,22.95152 6.45668,32.18791"
           style="fill:#8b0000;stroke:#000000;stroke-width:7.77932453;stroke-linecap:round;stroke-linejoin:miter;stroke-miterlimit:4;stroke-opacity:1;stroke-dasharray:none"
           inkscape:connector-curvature="0" />
        <path
           sodipodi:nodetypes="cc"
           id="path2505"
           d="m 218.47186,341.91396 c 8.22393,11.18068 20.10236,10.01802 32.6122,21.91418"
           style="fill:#8b0000;stroke:#000000;stroke-width:7.77932453;stroke-linecap:round;stroke-linejoin:miter;stroke-miterlimit:4;stroke-opacity:1;stroke-dasharray:none"
           inkscape:connector-curvature="0" />
        <path
           sodipodi:nodetypes="cc"
           id="path2507"
           d="m 230.24451,392.24306 c 11.24654,3.4594 29.01461,-7.89013 41.30622,-7.24653"
           style="fill:#8b0000;stroke:#000000;stroke-width:7.77932453;stroke-linecap:round;stroke-linejoin:miter;stroke-miterlimit:4;stroke-opacity:1;stroke-dasharray:none"
           inkscape:connector-curvature="0" />
        <path
           sodipodi:nodetypes="cc"
           id="path2509"
           d="m 297.26447,393.15573 c -5.91948,12.37199 -2.13454,24.34701 -10.5557,34.30244"
           style="fill:#8b0000;stroke:#000000;stroke-width:7.77932453;stroke-linecap:round;stroke-linejoin:miter;stroke-miterlimit:4;stroke-opacity:1;stroke-dasharray:none"
           inkscape:connector-curvature="0" />
      </g>
      <g
         id="g2517"
         transform="translate(-1356.8393,-13.417438)"
         style="fill:#8b0000;stroke:#000000;stroke-width:0.87819928;stroke-opacity:1">
        <path
           sodipodi:nodetypes="cccc"
           id="path2511"
           d="m 1106.5509,186.5944 c 10.0773,-26.07296 -29.557,-34.94479 -53.6253,-41.27298 -14.8955,-9.39237 -23.7437,-7.67751 -33.1892,3.05472 -12.4604,-8.2837 -27.4894,-12.05684 -39.94986,-13.55376"
           style="fill:#8b0000;stroke:#000000;stroke-width:7.77932453;stroke-linecap:round;stroke-linejoin:miter;stroke-miterlimit:4;stroke-opacity:1;stroke-dasharray:none"
           inkscape:connector-curvature="0" />
        <path
           sodipodi:nodetypes="cccc"
           id="path2513"
           d="m 1052.5862,146.73412 c -9.9845,11.95773 -23.0772,11.47239 -33.9083,0.84776 11.773,14.2633 14.1409,34.21349 -9.9942,43.95037 -10.35724,7.09715 -16.21399,19.02257 -24.44713,22.84339"
           style="fill:#8b0000;stroke:#000000;stroke-width:7.77932453;stroke-linecap:round;stroke-linejoin:miter;stroke-miterlimit:4;stroke-opacity:1;stroke-dasharray:none"
           inkscape:connector-curvature="0" />
        <path
           sodipodi:nodetypes="cc"
           id="path2515"
           d="m 1017.2493,149.71678 c 10.6986,-15.09769 37.4394,-10.89401 49.3159,1.02741"
           style="fill:#8b0000;stroke:#000000;stroke-width:7.77932453;stroke-linecap:round;stroke-linejoin:miter;stroke-miterlimit:4;stroke-opacity:1;stroke-dasharray:none"
           inkscape:connector-curvature="0" />
      </g>
      <path
         style="fill:#8b0000;stroke:#000000;stroke-width:4.66759443;stroke-linecap:round;stroke-linejoin:miter;stroke-miterlimit:4;stroke-opacity:1;stroke-dasharray:none"
         d="m -177.0736,154.95018 c 7.63621,-4.08499 13.95165,-8.83036 6.32248,-17.70292"
         id="path2543"
         sodipodi:nodetypes="cc"
         inkscape:connector-curvature="0" />
      <path
         sodipodi:nodetypes="cc"
         id="path2545"
         d="m -159.37067,154.31793 c 7.63621,-4.08499 13.95165,-8.83036 6.32248,-17.70292"
         style="fill:#8b0000;stroke:#000000;stroke-width:4.66759443;stroke-linecap:round;stroke-linejoin:miter;stroke-miterlimit:4;stroke-opacity:1;stroke-dasharray:none"
         inkscape:connector-curvature="0" />
      <path
         style="fill:#8b0000;stroke:#000000;stroke-width:4.66759443;stroke-linecap:round;stroke-linejoin:miter;stroke-miterlimit:4;stroke-opacity:1;stroke-dasharray:none"
         d="m -141.02563,151.74891 c 6.99613,-5.10423 12.59268,-10.67934 3.80709,-18.40851"
         id="path2547"
         sodipodi:nodetypes="cc"
         inkscape:connector-curvature="0" />
      <path
         sodipodi:nodetypes="cc"
         id="path2549"
         d="m -122.26383,147.2419 c 7.10605,-4.95003 12.82317,-10.40145 4.20868,-18.32086"
         style="fill:#8b0000;stroke:#000000;stroke-width:4.66759443;stroke-linecap:round;stroke-linejoin:miter;stroke-miterlimit:4;stroke-opacity:1;stroke-dasharray:none"
         inkscape:connector-curvature="0" />
      <path
         style="fill:#8b0000;stroke:#000000;stroke-width:4.66759443;stroke-linecap:round;stroke-linejoin:miter;stroke-miterlimit:4;stroke-opacity:1;stroke-dasharray:none"
         d="m -104.23499,140.99018 c 5.38159,-6.78508 9.28872,-13.65076 -1.23989,-18.75712"
         id="path2551"
         sodipodi:nodetypes="cc"
         inkscape:connector-curvature="0" />
      <path
         style="fill:#8b0000;stroke:#000000;stroke-width:7.77932453;stroke-linecap:round;stroke-linejoin:miter;stroke-miterlimit:4;stroke-opacity:1;stroke-dasharray:none"
         d="m -174.33386,158.5789 c -15.05837,-0.74913 -28.04565,1.00073 -44.76312,-1.80861"
         id="path2553"
         sodipodi:nodetypes="cc"
         inkscape:connector-curvature="0" />
      <path
         sodipodi:nodetypes="cc"
         id="path2555"
         d="m -244.44435,147.26358 c 8.54052,-10.86728 10.78658,-18.77771 -6.33779,-27.19812"
         style="fill:#8b0000;stroke:#000000;stroke-width:7.77932453;stroke-linecap:round;stroke-linejoin:miter;stroke-miterlimit:4;stroke-opacity:1;stroke-dasharray:none"
         inkscape:connector-curvature="0" />
      <path
         sodipodi:nodetypes="cc"
         id="path2557"
         d="m -206.46352,123.75165 c 7.63621,-4.08499 13.95165,-8.83036 6.32248,-17.70292"
         style="fill:#8b0000;stroke:#000000;stroke-width:4.66759443;stroke-linecap:round;stroke-linejoin:miter;stroke-miterlimit:4;stroke-opacity:1;stroke-dasharray:none"
         inkscape:connector-curvature="0" />
      <path
         style="fill:#8b0000;stroke:#000000;stroke-width:4.66759443;stroke-linecap:round;stroke-linejoin:miter;stroke-miterlimit:4;stroke-opacity:1;stroke-dasharray:none"
         d="m -188.76059,123.1194 c 7.63621,-4.08499 13.95165,-8.83036 6.32248,-17.70292"
         id="path2559"
         sodipodi:nodetypes="cc"
         inkscape:connector-curvature="0" />
      <path
         sodipodi:nodetypes="cc"
         id="path2561"
         d="m -170.41555,120.55038 c 6.99613,-5.10423 12.59268,-10.67934 3.80709,-18.40851"
         style="fill:#8b0000;stroke:#000000;stroke-width:4.66759443;stroke-linecap:round;stroke-linejoin:miter;stroke-miterlimit:4;stroke-opacity:1;stroke-dasharray:none"
         inkscape:connector-curvature="0" />
      <path
         style="fill:#8b0000;stroke:#000000;stroke-width:4.66759443;stroke-linecap:round;stroke-linejoin:miter;stroke-miterlimit:4;stroke-opacity:1;stroke-dasharray:none"
         d="m -151.65375,116.04337 c 7.10605,-4.95003 12.82317,-10.40145 4.20868,-18.320862"
         id="path2563"
         sodipodi:nodetypes="cc"
         inkscape:connector-curvature="0" />
      <path
         sodipodi:nodetypes="cc"
         id="path2565"
         d="m -133.62491,109.79165 c 5.38159,-6.78508 9.28872,-13.650761 -1.23989,-18.757122"
         style="fill:#8b0000;stroke:#000000;stroke-width:4.66759443;stroke-linecap:round;stroke-linejoin:miter;stroke-miterlimit:4;stroke-opacity:1;stroke-dasharray:none"
         inkscape:connector-curvature="0" />
      <path
         style="fill:#8b0000;stroke:#000000;stroke-width:7.77932453;stroke-linecap:round;stroke-linejoin:miter;stroke-miterlimit:4;stroke-opacity:1;stroke-dasharray:none"
         d="m -375.1856,519.89021 c 17.21124,4.92097 20.93966,6.17695 38.39434,4.34653"
         id="path2567"
         sodipodi:nodetypes="cc"
         inkscape:connector-curvature="0" />
    </g>
    <g
       transform="matrix(0.98963512,-0.14360476,0.14360476,0.98963512,129.88416,-49.350807)"
       id="g3618"
       style="fill:#8b0000">
      <path
         sodipodi:nodetypes="ccccccccccscccccccccc"
         d="m -28.971593,328.03773 c 0,0 -9.052985,-4.67332 1.497791,-40.92052 -26.99955,-9.31974 -46.19215,34.3836 -71.66541,31.85129 -43.043818,-3.0431 -80.324218,52.75962 -93.278778,45.50185 -16.75744,-12.18956 15.23902,-39.63859 27.34206,-50.27899 -60.53897,20.21552 -143.85363,39.83541 -147.92195,-24.79906 57.04626,46.93534 106.17359,5.3797 163.68832,3.25968 -12.4704,-14.63653 -25.95473,-16.64143 -34.11147,-14.94537 -27.81177,-21.29674 -39.35015,-2.74185 -36.29806,15.09833 -9.6549,-3.40055 -13.49789,-16.07079 -11.65677,-24.64719 -2.7268,-3.31387 -6.41003,-7.41065 -6.01519,-11.83439 0.77293,-8.65971 3.83786,-16.21911 8.57159,-19.25818 26.9564,-16.37448 51.01722,14.27103 92.45147,-6.72187 10.12268,-12.58294 29.80804,-14.67859 44.054058,3.30923 75.82045,-21.7488 192.969972,3.37749 158.118913,-52.32712 20.4694,-4.88873 33.09525,16.01416 26.16356,32.98884 -20.21223,15.20752 -32.94432,22.3119 -127.322753,34.48417 30.5668204,0.51114 161.170712,16.87354 134.148023,-33.34662 21.187539,-3.21315 31.128379,21.99211 15.925649,36.67209 -25.197819,13.08447 -59.802369,23.17339 -87.710312,22.0347 6.10803,28.61824 -0.348662,12.94649 -11.253242,29.53481"
         style="fill:#8b0000;fill-opacity:1;fill-rule:evenodd;stroke:#000000;stroke-width:7.73203516;stroke-linecap:butt;stroke-linejoin:miter;stroke-miterlimit:4;stroke-opacity:1;stroke-dasharray:none"
         id="path1413-1"
         inkscape:connector-curvature="0" />
      <path
         sodipodi:nodetypes="cccc"
         id="path2513-4"
         d="m -100.22261,248.19806 c -9.9845,11.95773 -23.0772,11.47239 -33.9083,0.84776 11.773,14.2633 14.1409,34.21349 -9.9942,43.95037 -10.35724,7.09715 -16.21399,19.02257 -24.44713,22.84339"
         style="fill:#8b0000;stroke:#000000;stroke-width:7.77932453;stroke-linecap:round;stroke-linejoin:miter;stroke-miterlimit:4;stroke-opacity:1;stroke-dasharray:none"
         inkscape:connector-curvature="0" />
      <path
         sodipodi:nodetypes="cc"
         id="path2515-3"
         d="m -134.11565,246.18052 c 10.6986,-15.0977 37.439398,-10.89402 49.315898,1.02741"
         style="fill:#8b0000;stroke:#000000;stroke-width:7.77932453;stroke-linecap:round;stroke-linejoin:miter;stroke-miterlimit:4;stroke-opacity:1;stroke-dasharray:none"
         inkscape:connector-curvature="0" />
      <path
         sodipodi:nodetypes="cccc"
         id="path2511-4"
         d="m -46.879492,287.12172 c 10.0773,-26.07296 -29.557,-34.94479 -53.625298,-41.27298 -14.8955,-9.39237 -23.7437,-7.67751 -33.1892,3.05472 -12.4604,-8.2837 -27.4894,-12.05684 -39.94986,-13.55376"
         style="fill:#8b0000;stroke:#000000;stroke-width:7.77932453;stroke-linecap:round;stroke-linejoin:miter;stroke-miterlimit:4;stroke-opacity:1;stroke-dasharray:none"
         inkscape:connector-curvature="0" />
      <path
         style="fill:#8b0000;fill-opacity:1;fill-rule:evenodd;stroke:#000000;stroke-width:0.87819928"
         d="m -227.30711,272.59764 c -2.29544,6.84214 1.96398,15.77229 5.5608,19.15384 -1.49168,-7.40506 1.4033,-12.61679 5.35484,-17.30024 l -10.91564,-1.8536 z"
         id="path2497-0"
         sodipodi:nodetypes="cccc"
         inkscape:connector-curvature="0" />
      <path
         sodipodi:nodetypes="cccc"
         id="path2499-4"
         d="m -196.3995,350.59718 c -11.59058,-4.5312 -18.17324,-18.85615 -18.32929,-26.58045 7.86146,9.51325 18.04048,11.63559 28.77767,11.97779 l -10.44838,14.60266 z"
         style="fill:#8b0000;fill-opacity:1;fill-rule:evenodd;stroke:#000000;stroke-width:4.66759443;stroke-linecap:butt;stroke-linejoin:miter;stroke-miterlimit:4;stroke-opacity:1;stroke-dasharray:none"
         inkscape:connector-curvature="0" />
      <path
         style="fill:#8b0000;stroke:#000000;stroke-width:4.66759443;stroke-linecap:round;stroke-linejoin:miter;stroke-miterlimit:4;stroke-opacity:1;stroke-dasharray:none"
         d="m 28.415778,274.58504 c 7.63621,-4.08499 13.95165,-8.83036 6.32248,-17.70292"
         id="path2543-9"
         sodipodi:nodetypes="cc"
         inkscape:connector-curvature="0" />
      <path
         style="fill:#8b0000;stroke:#000000;stroke-width:4.66759443;stroke-linecap:round;stroke-linejoin:miter;stroke-miterlimit:4;stroke-opacity:1;stroke-dasharray:none"
         d="m 64.463751,271.38377 c 6.99613,-5.10423 12.59268,-10.67934 3.80709,-18.40851"
         id="path2547-2"
         sodipodi:nodetypes="cc"
         inkscape:connector-curvature="0" />
      <path
         sodipodi:nodetypes="cc"
         id="path2549-1"
         d="m 83.225551,266.87676 c 7.10605,-4.95003 12.82317,-10.40145 4.20868,-18.32086"
         style="fill:#8b0000;stroke:#000000;stroke-width:4.66759443;stroke-linecap:round;stroke-linejoin:miter;stroke-miterlimit:4;stroke-opacity:1;stroke-dasharray:none"
         inkscape:connector-curvature="0" />
      <path
         style="fill:#8b0000;stroke:#000000;stroke-width:4.66759443;stroke-linecap:round;stroke-linejoin:miter;stroke-miterlimit:4;stroke-opacity:1;stroke-dasharray:none"
         d="m 101.25439,260.62504 c 5.38159,-6.78508 9.28872,-13.65076 -1.23989,-18.75712"
         id="path2551-7"
         sodipodi:nodetypes="cc"
         inkscape:connector-curvature="0" />
      <path
         sodipodi:nodetypes="cc"
         id="path2555-7"
         d="m -38.954972,266.89844 c 8.54052,-10.86728 10.78658,-18.77771 -6.33779,-27.19812"
         style="fill:#8b0000;stroke:#000000;stroke-width:7.77932453;stroke-linecap:round;stroke-linejoin:miter;stroke-miterlimit:4;stroke-opacity:1;stroke-dasharray:none"
         inkscape:connector-curvature="0" />
      <path
         sodipodi:nodetypes="cc"
         id="path2557-7"
         d="M -0.97414164,243.38651 C 6.6620684,239.30152 12.977508,234.55615 5.3483384,225.68359"
         style="fill:#8b0000;stroke:#000000;stroke-width:4.66759443;stroke-linecap:round;stroke-linejoin:miter;stroke-miterlimit:4;stroke-opacity:1;stroke-dasharray:none"
         inkscape:connector-curvature="0" />
      <path
         style="fill:#8b0000;stroke:#000000;stroke-width:4.66759443;stroke-linecap:round;stroke-linejoin:miter;stroke-miterlimit:4;stroke-opacity:1;stroke-dasharray:none"
         d="m 16.728788,242.75426 c 7.63621,-4.08499 13.95165,-8.83036 6.32248,-17.70292"
         id="path2559-7"
         sodipodi:nodetypes="cc"
         inkscape:connector-curvature="0" />
      <path
         sodipodi:nodetypes="cc"
         id="path2561-6"
         d="m 35.073828,240.18524 c 6.99613,-5.10423 12.59268,-10.67934 3.80709,-18.40851"
         style="fill:#8b0000;stroke:#000000;stroke-width:4.66759443;stroke-linecap:round;stroke-linejoin:miter;stroke-miterlimit:4;stroke-opacity:1;stroke-dasharray:none"
         inkscape:connector-curvature="0" />
      <path
         style="fill:#8b0000;stroke:#000000;stroke-width:4.66759443;stroke-linecap:round;stroke-linejoin:miter;stroke-miterlimit:4;stroke-opacity:1;stroke-dasharray:none"
         d="m 53.835631,235.67823 c 7.10605,-4.95003 12.82317,-10.40145 4.20868,-18.32086"
         id="path2563-3"
         sodipodi:nodetypes="cc"
         inkscape:connector-curvature="0" />
      <path
         sodipodi:nodetypes="cc"
         id="path2565-5"
         d="m 71.864471,229.42651 c 5.38159,-6.78508 9.28872,-13.65076 -1.23989,-18.75712"
         style="fill:#8b0000;stroke:#000000;stroke-width:4.66759443;stroke-linecap:round;stroke-linejoin:miter;stroke-miterlimit:4;stroke-opacity:1;stroke-dasharray:none"
         inkscape:connector-curvature="0" />
    </g>
    <g
       transform="translate(31.86743,-22.168647)"
       id="g4041"
       style="fill:#8b0000">
      <path
         sodipodi:nodetypes="ccccccccccscccccccccc"
         d="m 129.15823,443.23428 c -2.24297,-3.7279 1.49121,-6.11449 -25.17722,-46.25364 -28.058063,-5.34587 -40.775727,40.66063 -66.348611,41.81265 -43.0346777,3.16974 -71.915135,63.74772 -85.777672,58.42551 -18.33423,-9.65677 9.388779,-41.41614 19.83836,-53.68431 -57.008446,28.69968 -136.642047,60.08059 -149.950017,-3.29972 63.19512,38.25675 105.845661,-9.92309 162.459813,-20.28053 -14.443021,-12.69401 -28.075501,-12.74172 -35.904135,-9.89189 -30.581818,-17.0821 -39.336033,2.93744 -33.753643,20.15441 -10.043163,-1.97881 -15.665825,-13.96586 -15.075405,-22.71776 -3.17442,-2.88794 -7.40779,-6.41333 -7.65232,-10.84792 -0.47865,-8.68095 1.46894,-16.60213 5.71718,-20.28949 24.325551,-20.07583 52.537825,6.7968 90.527934,-19.92867 8.2107892,-13.90618 27.391167,-18.80702 44.072664,-3.05144 71.911352,-32.41155 191.454882,-24.36892 148.965602,-74.49138 19.5552,-7.77757 35.05193,11.09553 30.62974,28.8897 -17.81886,17.95247 -29.39877,26.8116 -121.050981,52.4109 30.323401,-3.8837 161.923321,-6.44624 127.968861,-52.26528 20.50651,-6.22248 33.96391,17.29398 21.02687,34.00499 -23.05766,16.56737 -55.85472,31.5211 -83.63692,34.40193 10.15444,27.44447 12.59845,14.24791 4.18906,32.23024"
         style="fill:#8b0000;fill-opacity:1;fill-rule:evenodd;stroke:#000000;stroke-width:7.73203516;stroke-linecap:butt;stroke-linejoin:miter;stroke-miterlimit:4;stroke-opacity:1;stroke-dasharray:none"
         id="path1413-1-1"
         inkscape:connector-curvature="0" />
      <path
         sodipodi:nodetypes="cccc"
         id="path2513-4-7"
         d="m 26.397258,368.91196 c -8.163825,13.26761 -21.1905176,14.66748 -33.435102,5.70837 13.699252,12.4248 18.907551,31.82817 -3.579129,44.93004 -9.230704,8.51094 -13.314202,21.15381 -20.913319,26.11735"
         style="fill:#8b0000;stroke:#000000;stroke-width:7.77932453;stroke-linecap:round;stroke-linejoin:miter;stroke-miterlimit:4;stroke-opacity:1;stroke-dasharray:none"
         inkscape:connector-curvature="0" />
      <path
         sodipodi:nodetypes="cc"
         id="path2515-3-1"
         d="M -7.4342129,371.78253 C 0.98539582,355.30495 28.052697,355.62495 41.518073,365.7173"
         style="fill:#fffafa;stroke:#000000;stroke-width:7.77932453;stroke-linecap:round;stroke-linejoin:miter;stroke-miterlimit:4;stroke-opacity:1;stroke-dasharray:none"
         inkscape:connector-curvature="0" />
      <path
         sodipodi:nodetypes="cccc"
         id="path2511-4-3"
         d="M 84.777104,399.77186 C 91.005753,372.52199 50.508221,369.43379 25.780629,366.62751 9.6907304,359.47156 1.180503,362.43929 -6.6258962,374.4167 -20.146724,368.00823 -35.561791,366.43244 -48.108065,366.74041"
         style="fill:#8b0000;stroke:#000000;stroke-width:7.77932453;stroke-linecap:round;stroke-linejoin:miter;stroke-miterlimit:4;stroke-opacity:1;stroke-dasharray:none"
         inkscape:connector-curvature="0" />
      <path
         style="fill:#8b0000;fill-opacity:1;fill-rule:evenodd;stroke:#000000;stroke-width:0.87819928"
         d="m -95.86613,411.30858 c -1.289085,7.10086 4.208599,15.32678 8.253745,18.15676 -2.539621,-7.1141 -0.423076,-12.68754 2.814941,-17.88991 l -11.068686,-0.26685 z"
         id="path2497-0-9"
         sodipodi:nodetypes="cccc"
         inkscape:connector-curvature="0" />
      <path
         sodipodi:nodetypes="cccc"
         id="path2499-4-4"
         d="m -54.077769,484.06119 c -12.121147,-2.81978 -20.692709,-16.05095 -21.956388,-23.67278 9.146125,8.28571 19.524419,8.92429 30.19946,7.72103 l -8.243072,15.95175 z"
         style="fill:#8b0000;fill-opacity:1;fill-rule:evenodd;stroke:#000000;stroke-width:4.66759443;stroke-linecap:butt;stroke-linejoin:miter;stroke-miterlimit:4;stroke-opacity:1;stroke-dasharray:none"
         inkscape:connector-curvature="0" />
      <path
         style="fill:#8b0000;stroke:#000000;stroke-width:4.66759443;stroke-linecap:round;stroke-linejoin:miter;stroke-miterlimit:4;stroke-opacity:1;stroke-dasharray:none"
         d="m 157.49162,376.55236 c 6.97044,-5.13925 12.53896,-10.74236 3.71473,-18.42737"
         id="path2543-9-4"
         sodipodi:nodetypes="cc"
         inkscape:connector-curvature="0" />
      <path
         style="fill:#8b0000;stroke:#000000;stroke-width:4.66759443;stroke-linecap:round;stroke-linejoin:miter;stroke-miterlimit:4;stroke-opacity:1;stroke-dasharray:none"
         d="m 192.70624,368.20761 c 6.19063,-6.056 10.92856,-12.37702 1.12408,-18.76443"
         id="path2547-2-7"
         sodipodi:nodetypes="cc"
         inkscape:connector-curvature="0" />
      <path
         sodipodi:nodetypes="cc"
         id="path2549-1-1"
         d="m 210.62635,361.05303 c 6.32155,-5.91919 11.19656,-12.13511 1.5341,-18.73535"
         style="fill:#8b0000;stroke:#000000;stroke-width:4.66759443;stroke-linecap:round;stroke-linejoin:miter;stroke-miterlimit:4;stroke-opacity:1;stroke-dasharray:none"
         inkscape:connector-curvature="0" />
      <path
         style="fill:#8b0000;stroke:#000000;stroke-width:4.66759443;stroke-linecap:round;stroke-linejoin:miter;stroke-miterlimit:4;stroke-opacity:1;stroke-dasharray:none"
         d="m 227.57055,352.27708 c 4.35144,-7.48758 7.23213,-14.84318 -3.92065,-18.38465"
         id="path2551-7-4"
         sodipodi:nodetypes="cc"
         inkscape:connector-curvature="0" />
      <path
         sodipodi:nodetypes="cc"
         id="path2555-7-1"
         d="m 89.715328,378.62019 c 6.891405,-11.9811 7.97821,-20.13209 -10.177879,-26.00608"
         style="fill:#8b0000;stroke:#000000;stroke-width:7.77932453;stroke-linecap:round;stroke-linejoin:miter;stroke-miterlimit:4;stroke-opacity:1;stroke-dasharray:none"
         inkscape:connector-curvature="0" />
      <path
         sodipodi:nodetypes="cc"
         id="path2557-7-0"
         d="m 123.92607,349.89773 c 6.97043,-5.13925 12.53896,-10.74236 3.71472,-18.42737"
         style="fill:#8b0000;stroke:#000000;stroke-width:4.66759443;stroke-linecap:round;stroke-linejoin:miter;stroke-miterlimit:4;stroke-opacity:1;stroke-dasharray:none"
         inkscape:connector-curvature="0" />
      <path
         style="fill:#8b0000;stroke:#000000;stroke-width:4.66759443;stroke-linecap:round;stroke-linejoin:miter;stroke-miterlimit:4;stroke-opacity:1;stroke-dasharray:none"
         d="m 141.35471,346.72981 c 6.97044,-5.13925 12.53896,-10.74236 3.71473,-18.42737"
         id="path2559-7-6"
         sodipodi:nodetypes="cc"
         inkscape:connector-curvature="0" />
      <path
         sodipodi:nodetypes="cc"
         id="path2561-6-7"
         d="m 159.14069,341.55298 c 6.19062,-6.056 10.92855,-12.37702 1.12408,-18.76442"
         style="fill:#8b0000;stroke:#000000;stroke-width:4.66759443;stroke-linecap:round;stroke-linejoin:miter;stroke-miterlimit:4;stroke-opacity:1;stroke-dasharray:none"
         inkscape:connector-curvature="0" />
      <path
         style="fill:#8b0000;stroke:#000000;stroke-width:4.66759443;stroke-linecap:round;stroke-linejoin:miter;stroke-miterlimit:4;stroke-opacity:1;stroke-dasharray:none"
         d="m 177.0608,334.3984 c 6.32155,-5.91919 11.19656,-12.13511 1.53409,-18.73535"
         id="path2563-3-8"
         sodipodi:nodetypes="cc"
         inkscape:connector-curvature="0" />
      <path
         sodipodi:nodetypes="cc"
         id="path2565-5-4"
         d="m 194.00499,325.62245 c 4.35144,-7.48757 7.23213,-14.84317 -3.92065,-18.38465"
         style="fill:#8b0000;stroke:#000000;stroke-width:4.66759443;stroke-linecap:round;stroke-linejoin:miter;stroke-miterlimit:4;stroke-opacity:1;stroke-dasharray:none"
         inkscape:connector-curvature="0" />
      <path
         style="fill:#8b0000;fill-opacity:1;fill-rule:nonzero;stroke:#000000;stroke-width:0.96601921;stroke-miterlimit:4;stroke-opacity:1;stroke-dasharray:none"
         d="M 4.7107112,375.09543 C 3.4983014,374.72209 2.010344,374.25974 1.4041391,374.06797 0.79793425,373.8762 0.30194845,373.5433 0.30194845,373.3282 c 0,-0.2151 1.02416725,-1.2926 2.27592715,-2.39445 2.3282775,-2.04943 5.9157862,-3.47463 8.7124244,-3.46116 1.56912,0.008 7.3995,1.26428 8.221044,1.77202 0.778951,0.48142 -3.011117,3.96433 -5.460627,5.01808 -3.123921,1.34387 -6.6570734,1.65888 -9.3400058,0.83274 z"
         id="path4035"
         inkscape:connector-curvature="0" />
    </g>
    <path
       inkscape:connector-curvature="0"
       id="path4037"
       d="m 44.486276,216.82751 c -1.428649,-0.39753 -3.049177,-0.96449 -3.601173,-1.25991 -0.989114,-0.52936 -0.984684,-0.5569 0.306347,-1.90445 1.930645,-2.01516 5.768212,-3.93598 8.513106,-4.26107 2.440954,-0.28909 9.604247,0.9696 10.102058,1.77507 0.379574,0.61416 -3.517243,3.93288 -5.804757,4.94362 -2.923518,1.29175 -6.467309,1.55495 -9.515581,0.70674 z"
       style="fill:#8b0000;fill-opacity:1;fill-rule:nonzero;stroke:#000000;stroke-width:0.96601921;stroke-miterlimit:4;stroke-opacity:1;stroke-dasharray:none" />
    <path
       inkscape:connector-curvature="0"
       id="path4039"
       d="m 267.27702,101.18611 c -2.81177,-1.01886 -5.38355,-2.426209 -5.23861,-2.866715 0.0947,-0.287849 1.5877,-1.262192 3.31774,-2.165206 2.91065,-1.519244 3.40158,-1.623929 6.57457,-1.401944 1.9682,0.137698 4.52649,0.709221 6.00511,1.341543 3.01737,1.29036 2.88255,1.763134 -1.07572,3.772363 -2.42463,1.230749 -7.78985,1.969749 -9.58309,1.319959 z"
       style="fill:#8b0000;fill-opacity:1;fill-rule:nonzero;stroke:#000000;stroke-width:0.96601921;stroke-miterlimit:4;stroke-opacity:1;stroke-dasharray:none" />
  </g>
  <path
     style="fill:#fffafa;fill-opacity:1;fill-rule:nonzero;stroke:#000000;stroke-width:1.10000002;stroke-miterlimit:4;stroke-opacity:1;stroke-dasharray:none"
     d="m 97.495484,106.25947 c -0.380564,-0.14643 -0.691935,-0.34884 -0.691935,-0.4498 0,-0.25914 1.277069,-1.41943 1.933457,-1.75665 0.709438,-0.36448 2.275854,-0.34302 3.175014,0.0435 l 0.70524,0.30316 -1.00371,0.97894 c -0.83717,0.81652 -1.20468,0.99289 -2.214922,1.06301 -0.666165,0.0462 -1.52258,-0.0358 -1.903144,-0.18217 z"
     id="path6000"
     inkscape:connector-curvature="0" />
  <path
     style="fill:#fffafa;fill-opacity:1;fill-rule:nonzero;stroke:#000000;stroke-width:1.10000002;stroke-miterlimit:4;stroke-opacity:1;stroke-dasharray:none"
     d="m 94.916455,166.12584 c -0.276774,-0.15459 -0.540706,-0.31129 -0.586515,-0.34822 -0.225266,-0.18161 0.550342,-1.13105 1.304965,-1.59744 0.943839,-0.58332 2.184273,-0.67176 3.413223,-0.24334 l 0.809995,0.28236 -0.709546,0.74655 c -1.308099,1.37632 -3.009826,1.84278 -4.232122,1.16009 z"
     id="path6002"
     inkscape:connector-curvature="0" />
  <path
     style="fill:#fffafa;fill-opacity:1;fill-rule:nonzero;stroke:#000000;stroke-width:1.10000002;stroke-miterlimit:4;stroke-opacity:1;stroke-dasharray:none"
     d="m 171.5333,55.229284 c -0.46869,-0.251359 -0.84546,-0.556802 -0.83728,-0.678761 0.008,-0.12196 0.40447,-0.485558 0.88064,-0.807995 0.91796,-0.621586 2.01267,-0.620862 3.38023,0.0022 0.77911,0.354985 0.70495,0.696196 -0.27014,1.24291 -1.19893,0.672214 -2.20658,0.749418 -3.15345,0.241607 z"
     id="path6004"
     inkscape:connector-curvature="0" />
  <path
     style="fill:#fffafa;fill-opacity:1;fill-rule:nonzero;stroke:#000000;stroke-width:1.10000002;stroke-miterlimit:4;stroke-opacity:1;stroke-dasharray:none"
     d="m 65.534569,127.12487 c -0.294878,-0.73697 -0.592068,-1.89684 -0.660423,-2.57749 -0.121112,-1.20598 -0.08903,-1.24043 1.257961,-1.35083 1.299773,-0.10653 1.367198,-0.0641 1.130087,0.71167 -0.138686,0.45373 -0.341044,1.58889 -0.449685,2.52259 -0.253179,2.17592 -0.607928,2.36859 -1.27794,0.69406 z"
     id="path6006"
     inkscape:connector-curvature="0" />
  <path
     style="fill:#fffafa;fill-opacity:1;fill-rule:nonzero;stroke:#000000;stroke-width:1.10000002;stroke-miterlimit:4;stroke-opacity:1;stroke-dasharray:none"
     d="m 136.51752,68.061304 c -0.23261,-0.776401 -0.42293,-2.153656 -0.42293,-3.060566 0,-1.750023 0.23032,-1.911316 2.03754,-1.426874 0.68908,0.184713 0.73809,0.31138 0.37676,0.973685 -0.22845,0.418741 -0.67481,1.698258 -0.9919,2.843371 l -0.57653,2.082023 -0.42294,-1.411639 z"
     id="path6008"
     inkscape:connector-curvature="0" />
  <path
     style="fill:#fffafa;fill-opacity:1;fill-rule:nonzero;stroke:#000000;stroke-width:1.10000002;stroke-miterlimit:4;stroke-opacity:1;stroke-dasharray:none"
     d="m 63.041911,187.59001 c -0.345773,-0.85202 -0.725171,-2.25312 -0.843106,-3.11355 l -0.214428,-1.56442 1.471703,0 c 1.600019,0 1.65643,0.0574 1.091977,1.11214 -0.208849,0.39024 -0.491718,1.70075 -0.628597,2.91224 l -0.248871,2.20271 -0.628678,-1.54912 z"
     id="path6012"
     inkscape:connector-curvature="0" />
  <path
     style="fill:#fffafa;fill-opacity:1;fill-rule:nonzero;stroke:#000000;stroke-width:1.10000002;stroke-miterlimit:4;stroke-opacity:1;stroke-dasharray:none"
     d="m 76.07728,151.86552 c -1.182231,-1.25608 -3.015743,-3.8934 -2.83348,-4.07566 0.06214,-0.0621 0.798597,0.12891 1.636566,0.42456 0.837969,0.29566 2.213141,0.53755 3.055939,0.53755 l 1.532359,0 -0.77647,2.13469 c -0.427059,1.17408 -0.945216,2.13483 -1.15146,2.135 -0.206244,1.8e-4 -0.864799,-0.52009 -1.463454,-1.15614 z"
     id="path6014"
     inkscape:connector-curvature="0" />
  <path
     style="fill:#fffafa;fill-opacity:1;fill-rule:nonzero;stroke:#000000;stroke-width:1.10000002;stroke-miterlimit:4;stroke-opacity:1;stroke-dasharray:none"
     d="m 73.910243,212.28662 c -1.090569,-0.91765 -3.289117,-3.95215 -3.289117,-4.53973 0,-0.16904 0.328974,-0.13128 0.731053,0.0839 0.402079,0.21519 1.71906,0.55037 2.926624,0.74484 1.207564,0.19447 2.239507,0.39752 2.293207,0.45122 0.0537,0.0537 -0.276345,1.01686 -0.733431,2.14035 l -0.831066,2.04271 -1.09727,-0.92329 0,0 z"
     id="path6016"
     inkscape:connector-curvature="0" />
</svg>
