<?xml version="1.0" standalone="no"?>
<!DOCTYPE svg PUBLIC "-//W3C//DTD SVG 20010904//EN"
 "http://www.w3.org/TR/2001/REC-SVG-20010904/DTD/svg10.dtd">
<svg version="1.0" xmlns="http://www.w3.org/2000/svg"
 width="931.000000pt" height="428.000000pt" viewBox="0 0 931.000000 428.000000"
 preserveAspectRatio="xMidYMid meet">

<g transform="translate(0.000000,428.000000) scale(0.100000,-0.100000)"
fill="#000000" stroke="none">
<path d="M8605 4153 c-175 -39 -256 -72 -479 -200 -329 -188 -661 -415 -806
-549 -41 -38 -67 -50 -255 -113 -174 -58 -369 -126 -680 -238 -22 -8 -80 -29
-130 -48 -83 -31 -145 -55 -415 -160 -133 -51 -519 -204 -555 -219 -16 -8 -57
-23 -90 -36 -33 -12 -71 -28 -85 -35 -14 -7 -68 -29 -120 -50 -52 -20 -113
-45 -135 -55 -22 -10 -96 -42 -165 -71 -135 -55 -386 -162 -435 -184 -16 -7
-59 -25 -95 -40 -66 -28 -297 -133 -405 -185 -84 -40 -158 -63 -325 -100 -80
-18 -174 -41 -209 -52 -41 -12 -67 -16 -74 -9 -10 10 87 59 208 106 147 57
530 246 761 377 82 46 162 89 178 96 45 20 192 129 262 194 96 91 115 163 50
197 -52 28 -188 37 -312 21 -194 -24 -611 -123 -975 -231 -96 -28 -190 -56
-209 -61 -51 -14 -522 -165 -840 -270 -694 -228 -851 -278 -872 -278 -16 0
-18 3 -9 14 16 18 -36 28 -147 27 -134 -1 -239 -38 -320 -114 -39 -37 -40 -51
-7 -73 48 -32 169 -15 400 56 163 50 494 156 905 290 626 204 1020 328 1235
389 22 6 87 24 145 41 166 46 514 127 635 146 61 9 151 17 200 18 95 1 135
-12 135 -41 0 -22 -114 -133 -200 -196 -36 -26 -76 -56 -90 -67 -14 -11 -50
-32 -80 -47 -30 -16 -57 -30 -60 -34 -35 -38 -584 -311 -1020 -506 -367 -165
-391 -175 -465 -194 -197 -51 -239 -62 -345 -94 -130 -40 -211 -64 -255 -76
-44 -12 -193 -59 -435 -138 -374 -121 -748 -257 -1018 -370 -68 -29 -131 -55
-140 -60 -356 -169 -432 -225 -357 -259 57 -26 160 -9 425 71 190 58 726 259
885 332 42 19 393 170 480 207 39 16 88 37 110 48 22 10 96 42 165 70 69 29
208 87 310 130 109 46 240 93 320 114 310 83 483 126 487 122 8 -8 -8 -26 -23
-26 -8 0 -14 -3 -14 -7 0 -5 -10 -13 -23 -19 -20 -10 -61 -31 -317 -167 -144
-76 -180 -95 -380 -207 -102 -57 -198 -111 -215 -120 -142 -76 -645 -386 -938
-579 -231 -151 -487 -372 -502 -434 -10 -38 10 -80 48 -103 28 -16 50 -19 167
-18 120 0 160 5 360 46 219 45 584 133 765 183 50 14 117 32 150 40 33 8 101
26 150 40 50 13 151 41 225 61 74 19 151 41 170 49 19 7 69 22 110 34 41 11
174 49 296 85 194 56 226 63 265 55 117 -22 344 5 584 70 126 34 417 134 516
178 24 11 64 28 89 39 25 10 113 52 195 93 100 49 193 86 280 111 124 36 581
151 655 165 19 3 62 15 95 25 33 11 71 21 85 24 14 2 79 18 145 35 66 17 219
53 339 81 181 42 229 50 275 44 45 -5 70 -1 129 19 l72 26 39 -42 c39 -41 41
-42 103 -40 67 2 162 26 268 69 108 44 290 125 370 164 41 21 95 41 120 44 25
4 81 13 125 21 187 32 482 70 625 80 134 9 158 15 164 38 5 20 3 20 -182 14
-213 -7 -213 -8 -74 69 73 41 215 133 247 161 44 39 65 76 65 116 l0 40 -47
-5 c-37 -4 -158 -60 -532 -247 -450 -225 -491 -243 -580 -261 -340 -69 -448
-90 -459 -90 -26 0 -9 19 51 56 126 77 464 330 672 503 159 132 157 131 306
269 189 177 338 382 339 465 0 25 9 32 126 87 313 148 374 188 377 249 2 29
-2 35 -24 41 -22 6 -55 -6 -165 -61 -77 -38 -146 -73 -154 -78 -8 -6 -33 -19
-55 -29 -22 -10 -191 -95 -375 -189 -381 -193 -703 -333 -764 -333 -8 0 -16
-5 -18 -12 -3 -7 -12 -9 -22 -5 -15 6 -15 10 -4 25 35 48 194 181 308 256 70
47 166 115 213 153 47 37 106 83 131 100 39 28 46 38 46 67 0 28 -4 34 -25 38
-31 6 -33 5 -216 -122 -186 -129 -328 -237 -396 -301 -88 -83 -416 -231 -569
-258 -44 -8 -71 -7 -109 3 -61 16 -70 41 -28 81 l28 27 -27 -6 c-16 -4 -28 -2
-28 3 0 24 46 111 101 191 64 94 341 390 365 390 8 0 72 14 142 31 166 40 288
57 304 41 8 -8 7 -17 -5 -36 -16 -24 -16 -26 5 -46 20 -18 23 -19 39 -4 24 21
42 79 35 107 -3 12 -15 28 -27 36 -29 18 -154 16 -247 -4 -40 -8 -83 -15 -94
-15 -21 0 -21 0 -2 21 42 46 377 267 624 411 142 83 298 158 360 173 112 27
110 27 110 7 0 -58 -200 -293 -378 -444 -64 -55 -80 -73 -72 -84 9 -10 19 -10
56 1 31 9 75 41 151 108 120 106 184 176 261 284 62 87 82 132 82 184 0 33 -4
41 -26 49 -26 10 -53 11 -89 3z m-1461 -915 c-4 -7 -29 -35 -55 -63 -85 -91
-140 -159 -186 -232 -25 -40 -50 -73 -57 -73 -6 0 -30 5 -53 10 -57 13 -169
-2 -236 -33 -135 -62 -389 -265 -403 -323 -3 -13 -10 -24 -15 -24 -5 0 -9 -11
-9 -25 0 -20 -6 -25 -35 -31 -19 -3 -35 -10 -35 -15 0 -5 -16 -9 -35 -9 -48 0
-44 15 11 36 51 19 124 95 124 128 0 45 -11 49 -121 44 -282 -14 -704 -186
-788 -321 -21 -34 -25 -36 -94 -42 -40 -4 -82 -6 -92 -5 -41 5 -56 -1 -64 -22
-7 -19 -30 -26 -187 -60 -98 -21 -210 -45 -249 -54 -136 -30 -310 -67 -339
-72 -85 -15 55 76 149 97 48 11 55 15 55 37 0 19 11 29 52 50 28 14 68 32 87
39 20 8 92 37 161 65 69 29 238 97 375 151 138 55 264 106 280 113 131 59 804
317 1105 423 220 78 643 222 653 223 5 0 5 -6 1 -12z m1426 -264 c0 -8 -20
-46 -44 -84 -43 -65 -57 -84 -107 -142 l-24 -26 -114 6 c-133 8 -134 2 7 102
102 73 249 160 269 160 7 0 13 -7 13 -16z m-1754 -172 c9 -5 9 -23 1 -65 l-11
-59 -89 -45 c-161 -80 -267 -123 -357 -143 -85 -19 -120 -19 -120 1 0 16 86
95 178 164 94 70 183 121 246 141 45 14 135 18 152 6z m1214 -42 c12 -7 12
-13 4 -27 -14 -23 -124 -32 -124 -10 0 15 54 44 85 46 11 0 27 -4 35 -9z
m-570 -76 c0 -15 -55 -44 -85 -44 -30 0 -11 35 25 47 48 16 60 16 60 -3z m880
-23 c0 -12 -77 -90 -170 -171 -40 -36 -83 -74 -94 -85 -11 -11 -32 -29 -47
-40 -15 -11 -82 -65 -150 -120 -68 -55 -168 -132 -224 -172 -55 -40 -111 -81
-125 -91 -14 -11 -80 -56 -147 -101 -118 -79 -171 -107 -181 -96 -3 2 9 28 26
56 18 27 32 53 32 56 0 2 8 12 18 21 10 10 51 54 92 100 73 82 314 323 400
399 25 21 88 75 140 119 52 43 105 88 118 99 13 11 40 23 60 26 60 10 252 10
252 0z m-432 -23 c-3 -7 -49 -50 -104 -96 -54 -46 -169 -150 -254 -231 -127
-121 -162 -149 -193 -155 -51 -10 -162 -73 -257 -148 -19 -15 -62 -39 -95 -54
-105 -46 -327 -135 -400 -159 -152 -51 -269 -96 -274 -104 -4 -4 -28 -11 -56
-15 -47 -6 -49 -6 -30 9 11 9 26 20 33 24 16 9 23 44 11 62 -16 27 -195 17
-353 -20 -77 -18 -145 -35 -151 -37 -6 -3 -16 16 -23 41 -33 125 -210 136
-544 34 -178 -54 -319 -110 -458 -182 -292 -152 -501 -317 -545 -430 -23 -61
-12 -87 50 -117 42 -20 57 -22 144 -17 90 5 292 48 316 68 6 4 20 7 30 7 11
-1 100 26 198 61 98 34 183 61 189 59 17 -6 -35 -49 -78 -65 -109 -41 -217
-73 -243 -73 -17 0 -33 -5 -36 -10 -4 -6 -11 -8 -16 -5 -5 4 -9 2 -9 -4 0 -5
-21 -13 -47 -16 -27 -3 -77 -15 -113 -26 -36 -11 -279 -81 -540 -155 -347 -99
-484 -134 -509 -130 -91 14 -155 103 -155 216 0 94 19 161 81 288 65 132 154
261 276 401 90 101 265 269 302 288 11 6 65 20 120 32 55 12 125 28 155 36 73
19 335 78 485 110 66 14 138 29 160 35 66 16 91 12 146 -25 30 -19 61 -35 70
-35 28 0 30 28 4 59 -21 25 -23 30 -9 35 31 12 63 5 93 -20 59 -50 134 -56
307 -24 196 35 304 77 304 116 0 18 14 19 -143 -16 -170 -38 -334 -57 -350
-41 -6 6 -20 11 -31 12 -54 1 68 33 324 83 368 73 451 86 532 84 72 -1 98 4
193 35 61 20 169 46 240 58 72 12 153 25 180 30 28 5 100 16 160 25 61 8 124
17 140 20 239 34 320 44 370 44 33 0 77 5 97 10 29 8 179 28 296 39 8 0 12 -5
10 -11z m-1038 -52 c0 -7 -15 -13 -32 -14 -18 -1 -45 -5 -60 -8 -40 -8 -34 7
15 38 39 25 43 25 59 11 10 -9 18 -21 18 -27z m-806 -27 c-20 -33 -485 -205
-614 -227 l-55 -10 33 28 c75 62 292 153 452 189 150 33 195 38 184 20z m2576
-427 c0 -4 -17 -16 -37 -27 -21 -10 -57 -32 -81 -47 -24 -15 -46 -28 -49 -28
-3 0 -21 -11 -39 -25 -18 -14 -36 -25 -41 -25 -4 0 -31 -17 -59 -39 -38 -28
-67 -41 -117 -51 -36 -6 -72 -10 -79 -8 -11 4 473 256 495 257 4 1 7 -2 7 -7z
m-7322 -181 c10 -6 6 -11 -15 -19 -45 -18 -191 -57 -286 -77 -81 -17 33 65
123 89 61 16 158 20 178 7z m5871 -23 c-7 -13 -29 -48 -50 -79 -21 -32 -50
-82 -63 -113 -20 -45 -33 -60 -60 -71 -43 -18 -127 -37 -134 -30 -10 10 74
122 147 196 91 90 127 119 153 119 16 0 17 -3 7 -22z m-3410 -125 c-331 -345
-495 -671 -455 -903 11 -60 26 -88 75 -137 23 -22 41 -45 41 -49 0 -5 -55 -24
-122 -43 -130 -36 -196 -55 -266 -77 -23 -8 -49 -14 -57 -14 -9 0 -23 -4 -33
-10 -17 -9 -122 -40 -347 -102 -60 -17 -121 -33 -135 -35 -14 -3 -70 -18 -125
-34 -136 -38 -640 -160 -800 -193 -217 -44 -314 -58 -446 -63 -204 -9 -216 15
-79 148 176 171 538 426 980 691 69 42 154 93 190 115 36 22 88 53 115 68 28
16 82 46 120 68 282 160 563 309 825 438 328 162 381 185 485 208 55 13 105
24 110 25 25 7 12 -10 -76 -101z m3074 -36 c-42 -59 -56 -87 -62 -126 l-6 -34
-125 -29 c-210 -50 -714 -175 -920 -229 -361 -95 -391 -102 -397 -95 -8 7 -19
-1 110 84 86 58 120 75 175 87 222 48 362 88 657 188 325 111 368 126 390 137
34 16 200 69 204 64 2 -2 -9 -23 -26 -47z m-1176 7 c17 -24 13 -84 -7 -95 -8
-4 -42 -17 -75 -29 -145 -52 -245 -118 -245 -160 0 -9 11 -27 25 -40 26 -25
32 -40 15 -40 -6 0 -29 -9 -53 -19 -95 -43 -244 -98 -452 -167 -170 -56 -257
-78 -383 -99 -183 -31 -212 -28 -212 22 0 51 189 215 384 333 197 119 547 258
741 294 44 8 89 17 100 20 11 3 49 4 84 2 49 -2 67 -6 78 -22z m1883 -71 c0
-10 -163 -77 -250 -103 -80 -24 -162 -26 -180 -5 -19 23 -4 32 85 49 44 9 132
27 195 40 126 27 150 30 150 19z m-1505 -16 c-17 -11 -108 -52 -170 -78 -11
-4 -48 -20 -82 -34 -89 -36 -98 -34 -74 14 20 38 22 39 138 70 65 18 123 34
128 36 6 2 26 4 45 4 31 1 33 0 15 -12z m-457 -136 c-25 -36 -78 -72 -113 -78
-59 -9 -43 20 33 60 77 42 100 47 80 18z m-3398 -80 c0 -10 -45 -32 -170 -84
-47 -19 -110 -46 -140 -60 -157 -72 -648 -278 -784 -329 -362 -137 -804 -274
-855 -266 -19 2 -15 8 26 34 52 34 272 138 393 186 41 16 95 38 120 48 262
105 856 311 1165 405 66 20 130 41 141 47 18 8 71 24 97 27 4 1 7 -3 7 -8z
m2469 -476 c-8 -9 -24 -17 -35 -19 -10 -3 -44 -15 -74 -29 -153 -67 -390 -138
-580 -172 -74 -14 -147 -27 -162 -30 -16 -3 -28 -1 -28 3 0 10 91 42 190 67
36 9 99 27 140 40 41 13 120 35 175 50 55 14 129 35 165 45 58 18 208 58 220
59 2 1 -3 -6 -11 -14z"/>
</g>
</svg>
